#!OML:ASF I:\Actors\actors\Patient Classification 1\Patient 1\Session 1\Subject1.ASF
:FULLY-SPECIFIED
:DEGREES
1995
root 0.0791705 17.4651 8.78681 9.01833 0.278333 -7.19504
lowerback -1.08273 1.45044 5.9116
upperback -11.7535 2.4166 1.15563
thorax -11.8707 0.658557 -2.25346
lowerneck -8.43592 -5.10898 -3.01696
upperneck 25.7235 -8.39238 6.32343
head 9.93984 -3.52828 1.78277
rclavicle -2.48481e-015 -9.54166e-015
rhumerus -55.1591 -27.1275 -59.7898
rradius 23.9009
rwrist 40.5531
rhand 14.7412 -29.8679
rfingers 7.12502
rthumb 39.608 -55.211
lclavicle -2.48481e-015 -9.54166e-015
lhumerus -49.2869 18.2506 73.2311
lradius 21.1448
lwrist -25.0878
lhand -14.9685 -8.43735
lfingers 7.12502
lthumb 11.1952 21.244
rfemur 0.0907546 27.7048 23.561
rtibia 0.62568
rfoot -14.9475 -30.2519
rtoes 5.50818
lfemur 8.74286 -47.7019 -16.1826
ltibia -5.42252
lfoot -32.3365 57.0866
ltoes 20.474
1996
root 0.0681379 17.468 8.77111 9.01375 0.333218 -7.25177
lowerback -0.986139 1.4116 5.91438
upperback -11.7211 2.37323 1.18597
thorax -11.8967 0.638664 -2.2211
lowerneck -8.33789 -5.07956 -3.00737
upperneck 25.5708 -8.35177 6.3686
head 9.86519 -3.50968 1.804
rclavicle -1.98785e-015 2.26615e-014
rhumerus -54.9192 -27.0925 -60.0802
rradius 23.9341
rwrist 40.4758
rhand 14.6965 -29.7173
rfingers 7.12502
rthumb 39.5658 -55.0728
lclavicle -1.98785e-015 2.26615e-014
lhumerus -49.2352 18.394 73.1709
lradius 21.1569
lwrist -25.2001
lhand -14.8943 -8.64454
lfingers 7.12502
lthumb 11.2667 21.0329
rfemur 0.00217433 27.6248 23.6294
rtibia 0.655078
rfoot -14.8919 -30.2624
rtoes 5.40937
lfemur 8.37338 -47.1677 -15.7298
ltibia -5.41896
lfoot -31.4151 56.7114
ltoes 19.9514
1997
root 0.0577453 17.47 8.75707 9.01594 0.394048 -7.2894
lowerback -0.929667 1.35844 5.88255
upperback -11.6606 2.30495 1.22979
thorax -11.8678 0.613183 -2.15132
lowerneck -8.28905 -5.02925 -2.92909
upperneck 25.4056 -8.28339 6.38036
head 9.78955 -3.47427 1.80386
rclavicle 3.37934e-015 1.59028e-015
rhumerus -54.652 -27.1432 -60.2943
rradius 23.9663
rwrist 40.4841
rhand 14.7534 -29.6309
rfingers 7.12502
rthumb 39.6195 -54.9706
lclavicle 3.37934e-015 1.59028e-015
lhumerus -49.1344 18.518 73.2039
lradius 21.2119
lwrist -25.0739
lhand -14.8191 -8.62975
lfingers 7.12502
lthumb 11.3392 21.0437
rfemur -0.102344 27.4499 23.6595
rtibia 0.677236
rfoot -14.7632 -30.1785
rtoes 5.35354
lfemur 8.0083 -46.6745 -15.3329
ltibia -5.36082
lfoot -30.4669 56.3645
ltoes 19.2425
1998
root 0.0493486 17.4704 8.7449 9.01975 0.426146 -7.33882
lowerback -0.896352 1.31719 5.8846
upperback -11.5972 2.25271 1.27522
thorax -11.8196 0.592777 -2.09926
lowerneck -8.2726 -5.02612 -3.0603
upperneck 25.209 -8.26578 6.48403
head 9.72536 -3.47251 1.86378
rclavicle -3.57812e-015 -1.23246e-014
rhumerus -54.4046 -27.2556 -60.4166
rradius 23.9558
rwrist 40.528
rhand 14.7819 -29.6021
rfingers 7.12502
rthumb 39.6463 -54.9338
lclavicle -3.57812e-015 -1.23246e-014
lhumerus -49.0392 18.6166 73.277
lradius 21.3104
lwrist -24.8438
lhand -14.7809 -8.49017
lfingers 7.12502
lthumb 11.3761 21.1813
rfemur -0.1793 27.3413 23.7106
rtibia 0.694941
rfoot -14.6938 -30.062
rtoes 5.49207
lfemur 7.76226 -46.509 -15.0858
ltibia -5.21448
lfoot -30.3203 56.1418
ltoes 19.127
1999
root 0.0413014 17.4704 8.73144 9.01367 0.42999 -7.42448
lowerback -0.816964 1.30414 5.93906
upperback -11.5456 2.24563 1.31553
thorax -11.809 0.587413 -2.08702
lowerneck -8.26223 -5.01734 -3.16734
upperneck 25.0789 -8.25946 6.62534
head 9.68772 -3.46779 1.93142
rclavicle 9.93923e-015 3.71727e-014
rhumerus -54.2488 -27.495 -60.3729
rradius 23.8909
rwrist 40.6808
rhand 14.6671 -29.5244
rfingers 7.12502
rthumb 39.5382 -54.8881
lclavicle 9.93923e-015 3.71727e-014
lhumerus -48.9819 18.7689 73.2548
lradius 21.4148
lwrist -24.738
lhand -14.7841 -8.54318
lfingers 7.12502
lthumb 11.373 21.1284
rfemur -0.239485 27.3392 23.8138
rtibia 0.708899
rfoot -14.6466 -30.0181
rtoes 5.57548
lfemur 7.5979 -46.498 -14.8695
ltibia -5.07412
lfoot -30.4297 56.0439
ltoes 19.2014
2000
root 0.0326439 17.4712 8.71696 9.0065 0.404165 -7.50007
lowerback -0.696985 1.2969 5.97523
upperback -11.4932 2.24831 1.35219
thorax -11.8216 0.587625 -2.07058
lowerneck -8.33792 -5.01066 -3.20143
upperneck 25.0594 -8.25401 6.67583
head 9.6988 -3.4615 1.95326
rclavicle 4.37326e-015 -6.75868e-015
rhumerus -54.1228 -27.8688 -60.1799
rradius 23.7386
rwrist 41.0157
rhand 14.482 -29.3733
rfingers 7.12502
rthumb 39.3639 -54.7882
lclavicle 4.37326e-015 -6.75868e-015
lhumerus -48.9024 19.033 73.1292
lradius 21.4629
lwrist -24.7489
lhand -14.8002 -8.60306
lfingers 7.12502
lthumb 11.3574 21.0694
rfemur -0.315385 27.3064 23.8933
rtibia 0.730737
rfoot -14.5947 -29.9357
rtoes 5.56206
lfemur 7.39845 -46.2377 -14.5913
ltibia -5.01298
lfoot -30.0904 55.8699
ltoes 19.0042
2001
root 0.0237759 17.471 8.70527 8.9974 0.359104 -7.52818
lowerback -0.594628 1.28985 5.97119
upperback -11.4348 2.2443 1.36001
thorax -11.8161 0.587365 -2.06201
lowerneck -8.41434 -4.99743 -3.20594
upperneck 25.038 -8.24283 6.72023
head 9.70743 -3.4505 1.96867
rclavicle -8.15017e-015 1.82882e-014
rhumerus -54.0807 -28.5052 -59.7238
rradius 23.4539
rwrist 41.6622
rhand 14.3427 -29.0859
rfingers 7.12502
rthumb 39.2326 -54.5389
lclavicle -8.15017e-015 1.82882e-014
lhumerus -48.795 19.1293 73.1202
lradius 21.5733
lwrist -24.5431
lhand -14.8818 -8.55147
lfingers 7.12502
lthumb 11.2787 21.1253
rfemur -0.353087 27.2228 23.9261
rtibia 0.710665
rfoot -14.5128 -29.812
rtoes 5.54178
lfemur 7.25951 -45.912 -14.4004
ltibia -5.00615
lfoot -29.7217 55.6815
ltoes 18.7857
2002
root 0.0140599 17.4704 8.69546 8.9898 0.28688 -7.50525
lowerback -0.52335 1.29479 5.88658
upperback -11.3816 2.24745 1.3474
thorax -11.7973 0.597694 -2.0308
lowerneck -8.41238 -5.00375 -3.20421
upperneck 24.9489 -8.25454 6.759
head 9.6777 -3.45387 1.98014
rclavicle 7.45443e-015 3.10104e-014
rhumerus -54.224 -29.4362 -58.9248
rradius 23.0724
rwrist 42.6195
rhand 14.242 -28.7735
rfingers 7.12502
rthumb 39.1377 -54.254
lclavicle 7.45443e-015 3.10104e-014
lhumerus -48.7271 19.0731 73.1984
lradius 21.7986
lwrist -24.1819
lhand -15.0135 -8.52103
lfingers 7.12502
lthumb 11.1517 21.1626
rfemur -0.387156 27.1488 23.904
rtibia 0.687593
rfoot -14.407 -29.688
rtoes 5.34117
lfemur 7.21457 -45.814 -14.3616
ltibia -4.98893
lfoot -29.8844 55.6068
ltoes 18.9336
2003
root 0.00441673 17.4716 8.68523 8.94919 0.202295 -7.5431
lowerback -0.414091 1.30212 5.82356
upperback -11.3307 2.26161 1.37034
thorax -11.8051 0.612607 -1.9751
lowerneck -8.46575 -5.02253 -3.09265
upperneck 24.9669 -8.26621 6.61822
head 9.68369 -3.46218 1.90977
rclavicle -1.47101e-014 5.32743e-014
rhumerus -54.5326 -30.4791 -57.8746
rradius 22.6344
rwrist 43.7037
rhand 14.0237 -28.6058
rfingers 7.12502
rthumb 38.9319 -54.1453
lclavicle -1.47101e-014 5.32743e-014
lhumerus -48.6961 19.036 73.2695
lradius 22.0378
lwrist -23.839
lhand -15.0608 -8.37158
lfingers 7.12502
lthumb 11.1061 21.3145
rfemur -0.424291 27.0989 23.9628
rtibia 0.74577
rfoot -14.3414 -29.5365
rtoes 5.14322
lfemur 7.21497 -45.7249 -14.2766
ltibia -4.98206
lfoot -30.1235 55.521
ltoes 19.2022
2004
root -0.0042864 17.473 8.67515 8.88982 0.144148 -7.6808
lowerback -0.267679 1.30761 5.87695
upperback -11.3042 2.28753 1.42124
thorax -11.8633 0.621548 -1.95579
lowerneck -8.48189 -5.03563 -2.94297
upperneck 25.0232 -8.26981 6.43632
head 9.6921 -3.46765 1.82082
rclavicle -1.42131e-014 -1.07344e-014
rhumerus -54.9806 -31.4201 -56.7561
rradius 22.2496
rwrist 44.6478
rhand 13.7138 -28.5957
rfingers 7.12502
rthumb 38.6396 -54.218
lclavicle -1.42131e-014 -1.07344e-014
lhumerus -48.7184 18.8799 73.4051
lradius 22.273
lwrist -23.419
lhand -15.0709 -8.21662
lfingers 7.12502
lthumb 11.0964 21.47
rfemur -0.451145 27.0402 24.1492
rtibia 0.839806
rfoot -14.2885 -29.3843
rtoes 5.11395
lfemur 7.17397 -45.4058 -14.0083
ltibia -5.01544
lfoot -29.789 55.3358
ltoes 18.941
2005
root -0.0128905 17.4733 8.66599 8.86576 0.103119 -7.81564
lowerback -0.159326 1.31065 5.92912
upperback -11.3147 2.30941 1.47395
thorax -11.9423 0.627669 -1.93261
lowerneck -8.36021 -5.0349 -2.91948
upperneck 24.994 -8.26894 6.42505
head 9.65676 -3.47012 1.81626
rclavicle -3.77691e-015 -5.1684e-015
rhumerus -55.5132 -32.1591 -55.7219
rradius 22.0139
rwrist 45.4286
rhand 13.4225 -28.6393
rfingers 7.12502
rthumb 38.3648 -54.3383
lclavicle -3.77691e-015 -5.1684e-015
lhumerus -48.8069 18.5538 73.6416
lradius 22.5399
lwrist -22.8226
lhand -15.1409 -8.23939
lfingers 7.12502
lthumb 11.0288 21.4509
rfemur -0.507403 26.959 24.318
rtibia 0.914124
rfoot -14.2326 -29.262
rtoes 4.94055
lfemur 7.06967 -45.0845 -13.7065
ltibia -5.02421
lfoot -29.3466 55.1735
ltoes 18.5017
2006
root -0.0206041 17.4728 8.65849 8.84604 0.0822974 -7.89645
lowerback -0.0955681 1.30616 5.93808
upperback -11.3011 2.31263 1.51799
thorax -11.9671 0.63053 -1.89182
lowerneck -8.32559 -5.03065 -3.04756
upperneck 24.9961 -8.28177 6.58582
head 9.66468 -3.47175 1.89296
rclavicle 2.98177e-015 2.8625e-014
rhumerus -55.9949 -32.7887 -54.7995
rradius 21.8295
rwrist 46.154
rhand 13.0343 -28.6216
rfingers 7.12502
rthumb 37.9983 -54.4213
lclavicle 2.98177e-015 2.8625e-014
lhumerus -48.8318 18.2165 73.9293
lradius 22.8038
lwrist -22.1861
lhand -15.1483 -8.24749
lfingers 7.12502
lthumb 11.0217 21.4432
rfemur -0.534006 26.8788 24.4286
rtibia 0.945548
rfoot -14.1867 -29.1707
rtoes 4.70496
lfemur 7.01324 -44.9626 -13.5465
ltibia -4.98566
lfoot -29.2459 55.103
ltoes 18.3603
2007
root -0.027951 17.473 8.65188 8.8077 0.0835793 -7.95162
lowerback -0.0360074 1.31042 5.95948
upperback -11.2501 2.32254 1.52404
thorax -11.9427 0.635 -1.89952
lowerneck -8.3336 -5.02227 -3.1303
upperneck 24.908 -8.27628 6.70035
head 9.64341 -3.46649 1.94672
rclavicle 7.95139e-016 9.14409e-015
rhumerus -56.3369 -33.2389 -54.1835
rradius 21.699
rwrist 46.6319
rhand 12.5192 -28.5933
rfingers 7.12502
rthumb 37.5116 -54.5238
lclavicle 7.95139e-016 9.14409e-015
lhumerus -48.7381 17.8706 74.2008
lradius 23.0154
lwrist -21.7532
lhand -15.053 -8.26544
lfingers 7.12502
lthumb 11.1136 21.4203
rfemur -0.514454 26.8596 24.5296
rtibia 0.946055
rfoot -14.1352 -29.1565
rtoes 4.5651
lfemur 6.96547 -44.7983 -13.405
ltibia -4.97207
lfoot -29.0575 54.9783
ltoes 18.332
2008
root -0.0359224 17.4749 8.645 8.78089 0.0837116 -7.99905
lowerback 0.0265041 1.32686 5.97716
upperback -11.2033 2.34666 1.50304
thorax -11.9228 0.64485 -1.93596
lowerneck -8.37953 -5.01025 -3.16306
upperneck 24.8652 -8.28964 6.86019
head 9.64682 -3.45842 2.00483
rclavicle 1.07344e-014 -3.97569e-015
rhumerus -56.4774 -33.3021 -54.1005
rradius 21.7036
rwrist 46.6788
rhand 12.1018 -28.7505
rfingers 7.12502
rthumb 37.117 -54.7847
lclavicle 1.07344e-014 -3.97569e-015
lhumerus -48.6054 17.5241 74.4173
lradius 23.1536
lwrist -21.602
lhand -14.9859 -8.40671
lfingers 7.12502
lthumb 11.1784 21.2755
rfemur -0.510025 26.9426 24.6243
rtibia 0.953308
rfoot -14.1251 -29.2383
rtoes 4.67835
lfemur 6.85586 -44.5399 -13.2011
ltibia -4.97763
lfoot -28.7139 54.7926
ltoes 18.2899
